<?xml version="1.0" standalone="no"?>
<!DOCTYPE svg PUBLIC "-//W3C//DTD SVG 20010904//EN"
 "http://www.w3.org/TR/2001/REC-SVG-20010904/DTD/svg10.dtd">
<svg version="1.0" xmlns="http://www.w3.org/2000/svg"
 width="400.000000pt" height="400.000000pt" viewBox="0 0 400.000000 400.000000"
 preserveAspectRatio="xMidYMid meet">
<metadata>
Created by potrace 1.14, written by Peter Selinger 2001-2017
</metadata>
<g transform="translate(0.000000,400.000000) scale(0.100000,-0.100000)"
fill="#000000" stroke="none">
<path d="M70 2000 l0 -2000 445 0 c245 0 445 3 445 7 0 4 -11 16 -25 28 -17
13 -26 32 -28 56 -3 33 -47 108 -47 79 0 -30 -122 112 -125 145 -1 14 -38 56
-112 128 -44 43 -64 71 -73 103 -7 24 -17 44 -21 44 -5 0 -9 7 -9 15 0 9 -15
24 -33 35 -28 17 -96 91 -71 78 5 -2 20 6 33 19 13 13 20 23 14 23 -6 0 -14
15 -18 33 -4 17 -9 37 -10 44 -2 7 17 22 41 33 48 24 56 31 24 23 -16 -4 -19
-2 -13 12 4 12 3 16 -5 11 -11 -6 -19 12 -28 58 -4 26 9 35 62 42 21 3 39 -3
54 -16 25 -22 35 -26 25 -10 -3 6 1 7 9 4 9 -3 16 -10 16 -15 0 -5 3 -8 7 -8
24 4 53 -2 49 -10 -8 -12 44 -23 89 -19 22 1 39 -3 44 -11 5 -7 14 -11 20 -7
6 4 20 2 31 -4 15 -8 20 -8 20 2 0 9 2 10 8 1 4 -6 27 -14 52 -17 25 -3 57 -8
72 -10 16 -2 30 0 33 5 6 9 56 -10 67 -26 5 -7 8 -7 8 0 0 13 78 7 86 -7 4 -6
0 -14 -7 -19 -11 -7 -10 -9 4 -9 11 0 17 8 17 21 0 13 4 18 12 13 6 -4 42 -7
80 -6 61 1 68 -1 68 -18 0 -22 15 -27 26 -8 4 6 3 8 -3 5 -5 -3 -10 0 -10 8 0
9 4 11 11 6 6 -5 24 -7 39 -5 21 2 27 -1 23 -11 -3 -8 -1 -17 4 -20 6 -4 10 3
10 14 0 12 7 21 16 21 8 0 12 -5 9 -10 -3 -6 -1 -10 4 -10 6 0 11 6 11 13 0 7
3 8 8 2 10 -14 52 -17 52 -4 0 8 4 8 13 2 11 -10 99 -9 142 0 11 3 26 -1 33
-9 7 -8 10 -14 5 -14 -4 0 2 -7 13 -15 16 -13 16 -14 2 -9 -10 3 -18 2 -18 -4
0 -11 55 -26 84 -22 11 1 26 8 33 16 17 16 32 18 53 4 11 -7 11 -10 2 -10 -7
0 -11 -4 -8 -9 4 -5 0 -12 -6 -14 -7 -3 -3 -6 9 -6 30 -1 40 -21 18 -38 -11
-7 -15 -13 -10 -13 5 0 -1 -11 -14 -23 -12 -13 -23 -34 -26 -45 -6 -34 -16
-44 -34 -37 -13 5 -14 4 -3 -6 26 -27 15 -31 -33 -13 -11 4 -26 8 -33 10 -27
5 -25 14 4 15 l29 1 -26 11 c-14 7 -24 18 -22 24 3 7 -7 17 -22 23 -35 13 -38
13 -31 -5 3 -8 1 -15 -4 -15 -6 0 -10 8 -10 18 0 14 -2 15 -10 2 -5 -9 -5 -19
2 -27 7 -9 7 -13 0 -13 -6 0 -19 -13 -28 -29 -16 -27 -21 -29 -57 -25 -22 3
-49 10 -59 15 -22 12 -49 18 -96 21 -20 1 -39 10 -47 21 -9 12 -15 15 -20 7
-5 -8 -10 -7 -18 4 -7 8 -23 16 -37 18 -14 2 -24 9 -22 16 2 10 -2 10 -18 2
-16 -8 -20 -8 -20 4 0 11 -12 13 -53 11 -28 -2 -61 -6 -71 -11 -13 -5 -17 -4
-13 3 5 7 0 9 -14 6 -17 -5 -13 -9 23 -26 24 -10 49 -20 56 -20 6 0 12 -3 12
-7 0 -4 14 -6 30 -5 19 1 30 -3 30 -12 0 -7 5 -13 11 -13 11 0 55 -32 90 -65
9 -8 30 -15 48 -15 19 0 34 -6 37 -15 4 -8 19 -15 34 -15 16 0 32 -5 36 -11 4
-8 9 -7 15 2 5 9 9 10 9 2 0 -6 9 -9 21 -6 12 4 25 0 30 -8 6 -10 9 -10 9 -1
0 6 5 12 10 12 6 0 10 -9 10 -20 0 -17 7 -20 45 -20 29 0 45 -4 45 -12 0 -9 4
-8 10 2 6 10 10 11 10 3 0 -14 28 -17 54 -7 9 3 13 11 9 18 -3 6 3 3 15 -8 12
-10 28 -16 36 -13 8 3 17 1 20 -6 2 -7 5 -3 6 8 1 19 2 18 10 -3 11 -26 30
-29 31 -4 0 14 2 14 9 -3 5 -11 9 -15 9 -8 1 17 37 26 103 28 32 0 60 3 63 7
3 3 32 4 65 2 41 -2 60 1 60 9 0 9 2 9 8 1 11 -18 82 -27 82 -11 0 7 3 8 8 2
8 -12 91 -13 111 -1 7 5 32 10 55 12 88 8 107 11 114 19 4 5 2 5 -5 1 -6 -3
-14 -2 -17 3 -7 11 46 27 99 30 13 1 16 4 8 9 -19 12 382 23 465 12 l34 -4
-22 -18 c-12 -10 -34 -19 -49 -20 -38 -2 -45 -3 -56 -9 -5 -3 -30 -7 -55 -8
-26 -1 -51 -9 -60 -19 -13 -14 -13 -15 2 -3 11 8 18 9 23 1 3 -6 10 -8 14 -5
11 6 131 -15 131 -24 0 -7 -146 -33 -258 -47 -87 -10 -50 -29 74 -37 28 -2 56
-7 62 -11 7 -4 12 -3 12 3 0 5 9 9 20 8 11 -1 20 -5 20 -10 0 -4 4 -6 9 -3 14
9 41 -4 41 -19 0 -8 -8 -11 -21 -8 -12 4 -25 0 -30 -8 -7 -12 -9 -12 -9 0 0
11 -4 11 -22 -1 -13 -8 -48 -18 -78 -22 -30 -4 -60 -12 -67 -18 -10 -8 -13 -7
-13 3 0 12 -2 12 -9 0 -5 -8 -16 -11 -24 -8 -9 3 -17 2 -19 -3 -2 -5 -37 -10
-78 -10 -41 -1 -100 -9 -130 -18 l-55 -16 40 -6 40 -5 -35 -12 c-30 -10 -74
-17 -180 -30 -14 -1 -78 -5 -142 -7 -65 -3 -122 -7 -128 -11 -5 -3 -10 -2 -10
2 0 9 -39 14 -132 17 -31 0 -54 4 -52 8 2 4 -5 13 -16 21 -21 14 -21 14 2 21
13 3 33 6 46 6 23 0 31 25 10 29 -7 1 -44 4 -83 6 -173 11 -333 29 -362 41
-18 7 -33 11 -33 9 0 -2 -29 7 -65 20 -36 14 -75 25 -88 25 -12 0 -31 7 -41
15 -10 8 -22 12 -27 10 -4 -3 -16 5 -26 17 -24 30 -98 78 -120 78 -29 1 -88
35 -85 49 1 7 -2 10 -7 7 -5 -4 -24 2 -42 13 -24 14 -37 17 -50 10 -10 -5 -22
-9 -26 -8 -4 1 -20 1 -35 0 -32 -1 -39 -28 -10 -38 26 -9 52 -34 46 -44 -3 -5
0 -9 5 -9 6 0 11 -6 11 -14 0 -7 10 -17 23 -20 20 -6 20 -8 6 -19 -9 -7 -19
-22 -23 -35 -7 -20 -4 -22 28 -22 20 0 36 -4 36 -10 0 -5 5 -10 11 -10 5 0 7
6 3 13 -4 6 2 4 14 -7 12 -10 19 -22 17 -27 -3 -4 3 -12 12 -18 21 -11 14 -21
-15 -24 -17 -1 -19 -4 -9 -17 7 -8 16 -18 21 -21 5 -4 -1 -10 -12 -13 -19 -6
-18 -9 15 -42 27 -28 38 -33 44 -22 8 12 13 4 10 -15 -1 -5 3 -6 9 -2 5 3 13
-1 16 -10 6 -13 8 -14 15 -3 7 10 9 9 9 -4 0 -10 -6 -18 -12 -18 -7 0 -4 -6 7
-12 34 -20 47 -36 32 -41 -6 -3 1 -10 16 -16 20 -8 400 -11 1358 -11 l1329 0
0 804 c0 634 -3 805 -12 809 -10 4 -10 6 0 6 8 1 12 24 12 81 l0 81 -52 -3
c-29 -1 -58 1 -65 5 -6 4 -14 3 -18 -3 -4 -7 -14 -6 -28 2 -12 6 -23 11 -24
10 -10 -7 -33 0 -33 9 0 6 7 9 15 5 9 -3 15 0 15 8 0 9 -7 12 -20 9 -11 -3
-20 -10 -20 -15 0 -6 -13 -8 -30 -4 -22 4 -29 2 -24 -6 4 -7 3 -8 -4 -4 -15 9
-5 33 13 33 8 0 11 -5 8 -10 -3 -6 -1 -7 5 -3 17 10 15 26 -2 26 -8 0 -17 4
-21 9 -3 6 4 9 15 8 11 -1 20 -5 20 -9 0 -4 14 -8 30 -8 25 0 30 4 30 23 -1
21 -1 22 -15 3 -13 -17 -15 -18 -15 -3 0 9 -4 17 -9 17 -5 0 -17 3 -27 7 -11
4 -15 3 -11 -4 5 -7 0 -9 -14 -6 -11 3 -16 10 -12 14 12 12 62 18 156 18 90 1
104 15 19 19 -31 2 -58 7 -60 13 -2 5 -23 9 -48 9 -37 0 -42 -2 -37 -18 5 -14
4 -15 -8 -6 -21 17 -131 40 -206 43 -12 1 -28 8 -37 16 -8 9 -33 15 -57 15
-40 0 -41 1 -23 15 19 14 19 14 -1 10 -11 -2 -29 -7 -40 -10 -18 -7 -18 -6 -4
6 23 20 30 46 13 46 -8 0 -14 -4 -14 -8 0 -4 -14 -7 -30 -7 -23 1 -29 5 -25
15 3 8 5 19 5 24 0 5 11 7 23 5 36 -6 49 7 21 21 -13 6 -22 8 -20 5 2 -4 -6
-7 -19 -7 -13 0 -21 3 -18 8 2 4 -3 7 -12 7 -10 0 -13 -5 -9 -12 4 -7 3 -9 -2
-5 -4 4 -9 21 -9 36 -1 23 3 27 18 23 11 -3 22 -13 24 -23 3 -11 10 -16 15
-13 5 3 7 13 3 21 -4 13 1 15 37 9 23 -4 49 -12 57 -19 10 -8 13 -8 8 -1 -7
13 57 13 70 1 3 -4 12 -2 20 4 10 9 13 7 13 -7 0 -16 2 -17 10 -4 8 12 10 10
10 -9 0 -23 1 -23 19 -7 19 17 95 31 86 16 -7 -12 51 -30 62 -19 4 4 19 10 32
12 12 2 26 9 30 16 5 7 11 12 15 12 24 -3 34 1 32 16 0 10 5 18 13 18 8 0 19
9 25 20 15 27 29 36 37 23 4 -6 11 -3 18 8 8 14 11 15 11 4 1 -11 4 -10 13 5
15 24 37 31 48 13 5 -7 9 263 9 600 0 370 -4 612 -9 612 -5 0 -16 -6 -24 -14
-11 -11 -17 -12 -27 -3 -10 9 -11 9 -6 0 3 -6 2 -14 -4 -18 -6 -4 -7 -11 -4
-17 4 -5 -6 -2 -22 8 -38 24 -43 29 -20 20 16 -6 17 -4 6 9 -7 9 -19 14 -27
11 -8 -4 -11 -1 -8 5 4 6 -2 13 -14 16 -14 4 -23 17 -29 47 -6 31 -12 40 -25
38 -10 -2 -16 3 -15 10 2 7 -3 12 -9 11 -7 -2 -13 1 -13 6 0 5 6 11 13 14 9 4
9 7 -1 18 -7 8 -12 10 -11 4 3 -15 -12 -45 -23 -45 -6 0 -7 7 -4 16 4 9 2 13
-5 8 -6 -3 -23 3 -39 14 -23 18 -30 19 -45 8 -16 -12 -16 -13 6 -11 34 3 42
-16 17 -42 -14 -15 -17 -23 -8 -23 7 0 11 -2 8 -5 -3 -3 -19 2 -36 12 -39 22
-87 9 -87 -24 0 -12 -4 -25 -9 -30 -5 -4 -6 -3 -2 4 10 18 -11 25 -27 8 -9 -8
-25 -15 -37 -15 -18 0 -19 -3 -9 -21 8 -15 8 -19 0 -15 -6 4 -11 2 -11 -4 0
-8 -6 -8 -20 0 -11 6 -18 15 -15 19 2 5 -2 14 -10 21 -12 10 -16 8 -24 -11
-10 -28 -10 -28 19 -34 26 -5 40 -21 40 -47 0 -20 -25 -24 -35 -8 -5 8 -11 7
-21 -1 -10 -8 -11 -16 -3 -31 8 -15 8 -23 -2 -32 -9 -8 -10 -8 -5 1 5 9 2 11
-8 7 -9 -3 -14 -10 -11 -14 3 -5 1 -11 -5 -15 -5 -3 -10 0 -10 7 -1 14 -61 48
-87 48 -13 0 -13 -3 -3 -15 11 -13 10 -14 -3 -9 -11 4 -22 -4 -35 -25 -10 -17
-21 -30 -23 -28 -2 1 3 -5 13 -13 18 -17 17 -92 -2 -98 -5 -2 -8 -8 -5 -13 4
-5 -1 -6 -8 -3 -8 3 -18 15 -21 27 -5 22 -5 22 -21 2 -12 -16 -14 -17 -9 -2 3
9 1 17 -5 17 -6 0 -11 -5 -11 -12 0 -6 -3 -8 -7 -4 -5 4 1 14 12 22 19 14 18
15 -13 12 -25 -2 -32 -7 -32 -23 0 -16 -2 -17 -10 -5 -7 10 -10 11 -10 2 0 -7
11 -17 25 -22 37 -14 22 -38 -23 -36 -21 1 -43 6 -51 10 -8 5 -16 4 -21 -3
-10 -17 -78 -32 -86 -19 -4 7 -10 4 -16 -6 -5 -9 -13 -16 -17 -16 -12 0 -56
40 -45 41 5 0 -4 5 -20 10 -37 10 -48 3 -15 -10 27 -11 26 -12 -18 -16 -19 -1
-34 3 -37 11 -3 9 1 11 12 7 9 -3 2 5 -17 16 -18 12 -36 19 -39 16 -4 -3 0
-10 7 -14 9 -6 4 -10 -17 -13 l-30 -4 2 47 c2 27 8 55 15 62 6 8 13 29 14 46
1 17 5 31 10 31 4 0 7 5 7 11 0 5 -4 7 -10 4 -5 -3 -10 -1 -10 5 0 6 -5 8 -10
5 -12 -7 -12 -5 -17 55 -1 25 -4 56 -5 70 -2 14 2 24 8 23 6 -1 9 10 6 28 -2
16 0 29 6 29 5 0 15 14 21 31 6 17 14 28 19 25 5 -3 9 1 9 8 0 8 -11 12 -31
10 -17 -1 -25 0 -18 3 10 4 10 8 0 21 -8 10 -8 13 -1 9 7 -5 9 0 6 13 -3 10
-8 19 -12 18 -18 -2 -24 3 -12 11 12 8 13 14 3 36 -7 14 -16 24 -21 21 -5 -3
-14 7 -19 23 -8 22 -7 31 1 35 9 3 9 5 0 5 -7 1 -10 7 -7 15 4 9 -6 16 -30 20
-33 6 -63 36 -50 49 9 8 -19 3 -34 -7 -8 -5 -18 -4 -25 3 -6 6 -8 11 -4 11 4
0 -3 11 -15 25 -14 16 -25 22 -31 16 -6 -6 -19 -6 -34 0 -16 6 -22 5 -18 -1 3
-6 1 -10 -4 -10 -6 0 -11 5 -11 10 0 6 -77 10 -210 10 -188 0 -240 -6 -197
-23 7 -3 5 -6 -5 -6 -10 -1 -18 4 -18 9 0 14 -34 12 -49 -2 -10 -11 -11 -10
-6 5 7 16 -38 17 -854 17 l-861 0 0 -2000z m1795 1930 c3 -5 1 -10 -4 -10 -6
0 -11 5 -11 10 0 6 2 10 4 10 3 0 8 -4 11 -10z m91 -132 c0 -22 -3 -22 -22 -4
-7 8 -24 12 -36 10 -19 -4 -20 -3 -4 4 32 14 62 10 62 -10z m-36 -58 c0 -5 -2
-10 -4 -10 -3 0 -8 5 -11 10 -3 6 -1 10 4 10 6 0 11 -4 11 -10z m1757 -156
c-3 -3 -12 -4 -19 -1 -8 3 -5 6 6 6 11 1 17 -2 13 -5z m-117 -139 c7 -9 8 -15
2 -15 -5 0 -12 7 -16 15 -3 8 -4 15 -2 15 2 0 9 -7 16 -15z m30 5 c0 -5 -2
-10 -4 -10 -3 0 -8 5 -11 10 -3 6 -1 10 4 10 6 0 11 -4 11 -10z m70 6 c0 -11
-19 -15 -25 -6 -3 5 1 10 9 10 9 0 16 -2 16 -4z m-186 -21 c-4 -8 -12 -15 -20
-15 -20 0 -17 18 4 23 9 3 18 5 19 6 1 0 0 -6 -3 -14z m59 -34 c-4 -16 -8 -19
-14 -10 -4 7 -3 19 3 26 14 18 19 12 11 -16z m144 3 c2 -6 -4 -11 -14 -10 -44
2 -83 -14 -83 -34 0 -24 -13 -26 -30 -5 -12 15 -3 36 23 56 14 10 100 4 104
-7z m-317 -12 c0 -4 -9 -8 -19 -8 -11 0 -17 4 -15 8 3 4 12 8 20 8 8 0 14 -4
14 -8z m-2227 -76 c32 -15 65 -39 74 -52 8 -13 21 -24 28 -24 7 0 19 -14 27
-30 7 -18 18 -28 26 -25 7 3 10 0 7 -5 -3 -6 -1 -10 4 -10 6 0 11 -6 11 -14 0
-8 5 -16 10 -18 6 -2 12 -13 13 -25 0 -12 11 -26 24 -32 15 -7 21 -16 16 -27
-4 -11 1 -22 12 -30 10 -8 15 -14 10 -14 -5 0 0 -7 11 -15 17 -13 17 -14 2
-15 -12 0 -15 -5 -11 -17 4 -10 8 -12 10 -6 6 16 33 4 33 -14 0 -8 5 -11 12
-7 7 5 8 3 4 -5 -5 -7 -15 -10 -24 -6 -13 5 -13 2 2 -14 11 -12 15 -25 10 -33
-6 -10 -4 -10 9 1 24 19 21 9 -7 -24 -14 -16 -22 -33 -19 -38 3 -5 5 -30 5
-55 -1 -25 1 -49 4 -54 11 -18 10 -101 -1 -112 -7 -7 -10 -38 -9 -79 3 -53 0
-69 -11 -73 -8 -4 -15 -10 -15 -16 0 -5 6 -6 13 -2 9 6 9 4 -1 -8 -7 -9 -12
-20 -11 -24 6 -33 -3 -84 -13 -81 -7 1 -12 -4 -10 -12 1 -7 -2 -19 -9 -27 -6
-8 -8 -26 -5 -41 4 -16 3 -23 -1 -16 -6 8 -17 -11 -32 -50 -12 -34 -29 -75
-35 -92 -7 -16 -19 -44 -26 -62 -6 -18 -17 -31 -23 -30 -6 1 -14 -13 -18 -31
-4 -19 -12 -39 -19 -45 -10 -9 -11 -9 -6 1 5 7 1 12 -9 12 -9 0 -13 -4 -10
-10 3 -5 1 -10 -5 -10 -7 0 -9 -8 -5 -21 5 -15 4 -19 -5 -14 -7 4 -10 2 -9 -6
4 -22 -10 -57 -26 -63 -18 -6 -19 -1 -4 26 8 14 8 18 0 14 -6 -4 -16 -24 -22
-45 -11 -37 -59 -105 -59 -85 -1 5 -8 -3 -16 -18 -8 -16 -19 -28 -25 -28 -6 0
-9 -6 -6 -12 5 -16 -11 -50 -22 -44 -4 3 -13 -11 -20 -30 -7 -19 -16 -32 -21
-29 -5 3 -11 -4 -15 -15 -4 -11 -16 -30 -28 -42 -21 -20 -21 -20 -2 -13 11 4
34 11 50 15 36 9 100 45 175 100 30 21 111 78 180 125 69 47 136 95 150 106
l25 20 -24 -7 c-20 -5 -23 -3 -18 10 4 10 3 15 -3 11 -6 -3 -10 -2 -10 3 0 10
29 26 43 24 4 -1 7 3 7 10 0 6 3 8 6 5 4 -4 19 2 33 12 25 18 193 100 236 116
58 21 136 38 299 67 100 18 127 20 175 10 31 -6 103 -11 160 -12 61 0 109 -5
117 -11 8 -6 14 -8 15 -3 0 5 4 -1 9 -12 7 -17 14 -20 36 -16 16 3 25 1 21 -5
-4 -6 23 -15 63 -22 39 -7 70 -16 70 -21 0 -4 12 -11 28 -15 15 -3 34 -13 43
-21 9 -8 53 -27 97 -43 45 -15 79 -31 76 -34 -4 -3 7 -9 22 -13 43 -10 49 -16
30 -29 -14 -11 -13 -13 11 -18 53 -11 163 -67 163 -83 0 -8 4 -13 9 -9 5 3 12
1 16 -5 7 -12 -16 -22 -54 -24 -14 -1 -33 -6 -41 -11 -12 -8 -9 -11 15 -16 17
-4 50 -7 75 -8 50 -1 45 -12 -15 -32 l-40 -13 30 -6 c25 -5 56 -4 99 3 5 1 10
-3 13 -10 2 -7 -17 -23 -44 -37 -50 -26 -54 -33 -9 -16 15 5 26 6 26 0 0 -5
-9 -12 -20 -15 -11 -4 -18 -11 -15 -16 3 -5 -25 -23 -62 -39 -37 -17 -83 -37
-100 -45 -18 -8 -48 -22 -65 -30 -46 -21 -138 -26 -138 -9 0 8 -8 14 -17 14
-15 0 -16 -2 -3 -10 13 -8 12 -10 -2 -10 -16 0 -23 11 -19 33 1 4 -8 3 -19 -3
-15 -8 -20 -8 -20 1 0 7 -10 9 -30 6 -20 -5 -30 -2 -31 6 0 9 -2 9 -6 0 -7
-18 -60 11 -68 37 -3 11 -9 21 -13 21 -4 1 -22 3 -41 5 -57 7 -115 25 -136 43
-23 20 -77 43 -91 39 -5 -1 -20 4 -32 11 -13 7 -26 10 -29 7 -4 -3 -22 6 -41
20 -28 22 -40 25 -75 20 -23 -3 -67 -8 -97 -11 -30 -3 -68 -8 -85 -10 -16 -2
-35 1 -43 7 -10 9 -12 8 -10 -2 2 -8 -6 -15 -17 -15 -11 -1 -27 -4 -35 -7 -39
-15 -98 -26 -125 -24 -16 1 -35 -2 -41 -7 -7 -4 -20 -9 -30 -11 -11 -3 -41
-14 -69 -27 -27 -12 -54 -21 -58 -21 -7 2 -95 -43 -106 -54 -8 -7 92 6 130 18
22 6 42 9 45 6 3 -3 6 -27 7 -52 1 -25 5 -46 10 -46 4 0 7 -11 7 -24 0 -12 11
-44 25 -70 14 -26 25 -53 25 -61 0 -13 91 -115 103 -115 2 0 7 11 9 24 4 19 1
24 -14 21 -14 -3 -18 2 -18 26 0 16 -4 29 -9 29 -5 0 -13 10 -17 22 -10 31
-13 78 -5 78 3 0 6 15 6 32 0 27 4 34 23 36 12 2 22 9 22 17 0 12 21 25 40 25
4 0 26 -29 49 -66 35 -55 49 -69 97 -91 30 -14 63 -23 73 -20 10 2 25 -1 35
-8 21 -16 56 -8 56 12 0 8 4 12 8 9 5 -3 22 8 37 24 16 17 34 30 41 30 7 0 15
8 19 18 3 9 17 31 31 47 15 17 23 24 19 16 -6 -11 -3 -13 13 -9 20 6 24 2 21
-18 0 -3 8 -12 18 -20 11 -8 14 -17 8 -21 -18 -14 -38 -61 -32 -77 3 -8 2 -18
-4 -21 -5 -4 -6 -11 -3 -17 4 -7 2 -8 -5 -4 -6 4 -9 12 -6 17 11 16 -12 10
-26 -8 -8 -10 -9 -14 -2 -10 6 4 14 3 18 -3 3 -5 1 -10 -4 -10 -6 0 -11 -5
-11 -11 0 -5 5 -7 12 -3 7 4 8 3 4 -4 -4 -7 -13 -12 -19 -12 -7 0 -18 -9 -25
-20 -9 -14 -9 -20 -1 -20 8 0 8 -4 -1 -15 -7 -8 -9 -23 -6 -32 6 -14 9 -15 15
-4 5 7 11 12 15 12 28 -4 45 6 97 59 36 36 57 64 53 71 -4 7 -3 9 3 6 10 -7
45 61 58 114 6 25 9 26 47 17 22 -5 52 -14 67 -22 14 -7 33 -11 41 -9 9 2 31
-12 50 -31 19 -18 40 -31 47 -29 7 3 10 9 7 14 -3 5 -2 9 3 8 4 -1 22 -1 38 0
21 1 26 4 16 10 -10 7 -5 11 18 16 17 3 31 11 31 16 0 6 4 7 10 4 5 -3 24 1
41 10 43 23 116 46 164 51 22 3 49 9 60 14 11 5 42 11 68 14 26 3 73 18 105
32 44 21 73 27 127 27 115 0 223 -7 218 -15 -2 -5 -11 -8 -18 -8 -8 0 -19 -9
-25 -20 -6 -11 -22 -23 -35 -26 -14 -3 -22 -10 -19 -15 3 -5 -13 -18 -36 -28
-23 -10 -41 -21 -41 -24 -1 -22 -13 -46 -19 -42 -5 3 -11 1 -15 -4 -3 -6 -12
-8 -19 -5 -8 3 -17 0 -22 -7 -5 -9 -2 -10 9 -6 11 4 14 2 10 -8 -3 -8 -10 -12
-16 -8 -6 3 -7 1 -3 -6 5 -7 23 -10 47 -7 21 2 39 1 39 -3 0 -5 11 -6 25 -3
31 6 34 -15 3 -27 -12 -4 -42 -6 -66 -4 -25 2 -51 -2 -58 -8 -11 -9 -14 -9
-14 0 0 7 -4 9 -10 6 -5 -3 -10 3 -10 13 0 11 7 22 15 26 19 7 19 32 1 39 -26
10 -236 -58 -236 -75 0 -5 -6 -8 -13 -8 -8 0 -33 -14 -55 -30 -23 -17 -47 -30
-53 -30 -5 0 -7 -4 -4 -10 5 -8 -12 -14 -36 -12 -3 0 -10 -8 -17 -18 -10 -16
-9 -18 5 -13 11 5 14 3 9 -6 -5 -7 -17 -10 -28 -8 -14 4 -22 0 -25 -11 -6 -24
-123 -83 -123 -63 0 12 -81 -9 -101 -26 -14 -12 -18 -12 -22 -1 -4 9 -8 10
-14 3 -4 -6 -15 -10 -23 -10 -8 1 -22 -2 -30 -5 -8 -4 -28 -10 -45 -14 -24 -5
-27 -4 -15 5 12 9 11 9 -5 3 -11 -4 -31 -8 -45 -9 -14 -1 -34 -5 -45 -8 -11
-3 -90 -8 -175 -11 -85 -3 -234 -9 -330 -13 -292 -13 -636 -5 -677 14 -10 5
-47 8 -83 8 -44 -2 -59 1 -45 7 17 7 15 8 -7 5 -16 -3 -28 -1 -28 2 0 3 -12 6
-27 7 -70 3 -152 12 -162 18 -6 4 -11 2 -11 -5 0 -8 -6 -7 -17 3 -12 10 -49
19 -103 23 -47 4 -87 10 -90 14 -3 3 -21 7 -40 8 -94 6 -108 8 -104 15 3 5 -6
8 -21 8 -47 0 -102 44 -111 89 -4 17 -10 31 -14 31 -15 0 22 168 52 240 28 64
117 215 137 230 4 3 18 21 31 40 13 19 27 37 30 40 3 3 20 27 38 54 18 27 32
46 32 42 0 -5 21 20 47 55 25 35 50 66 54 69 11 7 59 79 59 88 0 4 9 19 19 32
59 76 91 121 91 130 0 6 4 10 10 10 5 0 13 12 16 28 4 15 20 46 36 70 16 23
26 47 22 54 -5 7 -3 8 6 3 10 -6 12 -4 7 7 -3 9 3 24 14 34 10 9 19 27 19 40
0 13 4 25 9 28 12 8 20 56 9 56 -4 0 0 12 9 27 14 20 18 47 18 108 0 70 -5 88
-33 146 -18 36 -48 82 -68 102 -20 19 -33 40 -29 46 3 6 0 11 -8 11 -7 0 -14
6 -15 13 -4 53 -6 56 -37 55 -33 0 -95 -32 -109 -55 -4 -8 -23 -21 -42 -29
-19 -8 -34 -21 -34 -29 0 -8 -5 -15 -11 -15 -5 0 -7 6 -4 13 4 6 -1 3 -10 -8
-9 -11 -20 -20 -26 -20 -5 0 -13 -4 -17 -10 -4 -5 -15 -16 -24 -23 -14 -11
-20 -10 -38 8 -20 20 -26 59 -17 105 2 11 0 23 -5 26 -14 9 1 51 15 43 7 -4 9
-4 5 1 -4 4 -3 14 3 22 19 22 18 22 -136 -55 -27 -14 -60 -34 -73 -46 l-23
-21 11 30 c54 142 122 235 218 298 111 73 159 88 282 84 90 -3 113 -8 163 -31z
m2774 9 c0 -8 -6 -16 -13 -19 -7 -3 -10 2 -7 15 6 22 20 26 20 4z m-656 -36
c12 -19 11 -29 -2 -29 -5 0 -7 5 -4 10 3 6 -1 13 -10 17 -10 3 -21 0 -26 -8
-10 -16 -12 -8 -3 14 7 18 32 16 45 -4z m-1259 -161 c-10 -22 -11 -21 -11 12
-1 26 2 31 11 22 8 -8 8 -17 0 -34z m993 13 c-3 -6 -10 -9 -15 -6 -5 3 -11 1
-15 -5 -3 -5 -12 -10 -18 -10 -7 0 -3 7 7 15 10 8 23 12 27 9 5 -3 9 0 9 7 0
7 3 10 6 6 3 -3 3 -11 -1 -16z m-1211 -16 c-4 -8 -8 -15 -10 -15 -2 0 -4 7 -4
15 0 8 4 15 10 15 5 0 7 -7 4 -15z m769 -12 c-7 -3 -11 -10 -9 -16 1 -7 1 -9
-1 -4 -3 4 -9 5 -14 1 -13 -8 -11 10 3 24 6 6 16 8 22 5 7 -5 6 -8 -1 -10z
m622 -127 c12 -12 12 -15 -2 -21 -10 -3 -14 -3 -10 1 4 4 2 13 -4 21 -15 17
-1 17 16 -1z m68 0 c4 -10 1 -13 -8 -9 -8 3 -12 9 -9 14 7 12 11 11 17 -5z
m397 4 c-8 -5 -19 -10 -25 -10 -5 0 -3 5 5 10 8 5 20 10 25 10 6 0 3 -5 -5
-10z m72 -14 c16 -12 15 -13 -12 -14 -21 0 -27 3 -23 14 6 17 13 17 35 0z
m-1607 -6 c3 -5 1 -10 -4 -10 -6 0 -11 5 -11 10 0 6 2 10 4 10 3 0 8 -4 11
-10z m-329 -9 c-3 -5 -15 -7 -26 -4 -28 7 -25 13 6 13 14 0 23 -4 20 -9z m74
-1 c11 -8 5 -9 -20 -5 -19 3 -36 8 -39 11 -9 9 45 3 59 -6z m-1253 -156 c3 -9
8 -11 12 -6 4 7 12 6 23 -2 15 -11 15 -15 0 -47 -45 -95 -68 -97 -64 -3 3 70
15 94 29 58z m-127 -217 c-17 -14 -24 -37 -11 -37 5 0 23 16 40 37 17 20 31
32 31 27 0 -12 -50 -88 -84 -129 -22 -25 -26 -27 -32 -12 -16 44 35 162 60
137 8 -8 7 -14 -4 -23z m2369 12 c1 10 4 11 14 3 7 -6 29 -13 48 -16 45 -6 70
-16 64 -26 -9 -14 11 -20 45 -14 22 5 28 9 18 15 -10 7 -8 9 5 9 26 0 16 -24
-11 -28 -25 -4 -26 -6 -11 -34 9 -16 13 -18 20 -7 7 12 10 12 21 0 7 -8 8 -11
2 -8 -7 4 -18 -1 -25 -10 -12 -15 -12 -16 7 -11 14 3 21 0 21 -9 0 -8 -6 -12
-15 -8 -12 4 -12 3 -3 -9 8 -10 9 -16 1 -21 -5 -3 -10 -13 -10 -21 0 -8 4 -13
9 -10 5 3 11 -1 14 -9 4 -9 1 -12 -8 -9 -10 4 -13 0 -10 -14 4 -23 -11 -39
-38 -39 -11 0 -16 6 -12 14 3 10 -2 14 -18 12 -12 -2 -28 1 -36 5 -10 7 -12 5
-6 -4 5 -9 2 -10 -14 -5 -27 8 -39 -18 -20 -43 13 -15 12 -16 -3 -3 -10 7 -18
19 -18 26 0 8 -16 14 -39 17 -30 3 -37 0 -33 -11 3 -8 1 -12 -4 -9 -15 10 -76
-20 -68 -33 5 -8 1 -8 -14 0 -24 13 -35 14 -29 4 3 -5 -10 -8 -29 -8 -19 0
-34 3 -34 8 0 4 -8 7 -17 7 -13 1 -10 5 10 16 29 16 34 29 15 37 -10 4 -9 8 2
16 13 9 13 11 -2 11 -9 0 -19 -6 -22 -12 -3 -7 -5 -4 -3 7 1 12 10 20 22 20
13 0 20 7 20 20 -1 11 -6 19 -12 18 -6 -1 -14 4 -17 12 -4 10 1 15 14 15 25 0
26 15 3 24 -15 6 -14 9 7 20 17 8 27 9 32 2 4 -6 14 -4 26 7 10 9 24 17 31 17
7 0 10 4 7 8 -2 4 8 8 22 7 20 0 26 4 24 18 -2 10 6 21 20 27 13 5 19 9 15 9
-5 1 -5 6 -1 13 5 8 10 6 15 -8 4 -10 8 -13 8 -5z m249 -124 c-3 -3 -9 2 -12
12 -6 14 -5 15 5 6 7 -7 10 -15 7 -18z m-235 -152 c-7 -2 -21 -2 -30 0 -10 3
-4 5 12 5 17 0 24 -2 18 -5z m-67 -28 c4 -8 13 -15 21 -15 12 0 13 3 3 14 -7
9 9 5 39 -10 60 -29 69 -29 100 -7 14 9 21 11 17 5 -4 -7 -2 -12 3 -12 21 0
11 29 -11 33 -20 4 -19 4 5 6 25 1 32 -7 28 -34 -1 -5 4 -3 11 5 18 21 44 21
44 -1 0 -10 -5 -17 -10 -16 -5 1 -13 -9 -17 -23 -4 -14 -7 -20 -8 -13 -1 7 -8
10 -17 6 -9 -3 -14 -13 -11 -23 4 -17 2 -17 -30 -3 -20 8 -42 12 -50 9 -8 -3
-11 -1 -8 4 3 6 13 10 22 10 9 0 14 3 11 6 -4 3 -8 5 -10 3 -1 -1 -14 3 -27
10 -22 12 -23 12 -19 -7 4 -14 2 -19 -7 -16 -7 3 -12 13 -10 22 2 19 -22 32
-43 24 -10 -3 -11 -7 -2 -12 8 -5 4 -9 -10 -13 -17 -4 -20 -2 -15 11 5 14 4
14 -13 -1 -21 -19 -32 -22 -32 -7 0 6 6 9 13 8 13 -3 13 5 2 35 -5 12 -2 17 9
17 9 0 19 -7 22 -15z m71 9 c-3 -3 -12 -4 -19 -1 -8 3 -5 6 6 6 11 1 17 -2 13
-5z m-152 -34 c-3 -5 -1 -10 6 -10 7 0 10 -2 7 -5 -3 -3 -13 -2 -22 1 -14 5
-15 9 -4 15 17 11 20 11 13 -1z m5 -64 c0 -3 -4 -8 -10 -11 -5 -3 -10 -1 -10
4 0 6 5 11 10 11 6 0 10 -2 10 -4z m427 -20 c-5 -14 -47 -21 -47 -7 0 6 7 11
16 11 8 0 12 4 9 10 -3 6 1 7 10 4 9 -4 14 -12 12 -18z m33 -19 c0 -5 -4 -5
-10 -2 -5 3 -10 14 -10 23 0 15 2 15 10 2 5 -8 10 -19 10 -23z m-319 -4 c10 3
17 1 13 -4 -3 -5 -11 -9 -18 -9 -18 0 -38 25 -28 34 4 4 9 0 10 -9 3 -11 10
-15 23 -12z m249 -23 c-8 -5 -24 -9 -35 -9 l-20 0 20 9 c11 5 27 9 35 9 13 1
13 0 0 -9z m45 1 c3 -5 1 -12 -4 -15 -5 -3 -11 1 -15 9 -6 16 9 21 19 6z m45
-1 c0 -5 -2 -10 -4 -10 -3 0 -8 5 -11 10 -3 6 -1 10 4 10 6 0 11 -4 11 -10z
m-347 -7 c-7 -2 -19 -2 -25 0 -7 3 -2 5 12 5 14 0 19 -2 13 -5z m144 1 c-3 -3
-12 -4 -19 -1 -8 3 -5 6 6 6 11 1 17 -2 13 -5z m40 0 c-3 -3 -12 -4 -19 -1 -8
3 -5 6 6 6 11 1 17 -2 13 -5z m-460 -40 c-3 -3 -12 -4 -19 -1 -8 3 -5 6 6 6
11 1 17 -2 13 -5z m673 -16 c0 -8 -3 -9 -86 -11 -36 -2 -47 1 -37 8 16 12 123
14 123 3z m70 -38 c0 -5 -8 -10 -17 -10 -15 0 -16 2 -3 10 19 12 20 12 20 0z
m300 -106 c0 -2 -7 -4 -15 -4 -8 0 -15 4 -15 10 0 5 7 7 15 4 8 -4 15 -8 15
-10z m140 -4 c0 -5 -4 -10 -10 -10 -5 0 -10 5 -10 10 0 6 5 10 10 10 6 0 10
-4 10 -10z m-145 -80 c-3 -5 -11 -10 -16 -10 -6 0 -7 5 -4 10 3 6 11 10 16 10
6 0 7 -4 4 -10z m-2171 -16 c5 -13 2 -15 -13 -11 -12 3 -22 -1 -25 -9 -3 -8
-13 -14 -22 -14 -15 0 -14 4 6 25 27 29 45 32 54 9z m2241 -54 c-3 -5 -12 -10
-18 -10 -7 0 -6 4 3 10 19 12 23 12 15 0z m-32 -43 c22 13 32 11 50 -13 13
-18 14 -22 3 -18 -10 4 -16 -2 -18 -18 -2 -15 -9 -23 -21 -22 -9 1 -17 -2 -17
-8 0 -5 -4 -6 -10 -3 -18 11 -10 25 15 25 14 0 25 5 25 10 0 6 -6 10 -12 9
-30 -4 -38 3 -37 29 0 15 3 21 6 14 2 -6 10 -9 16 -5z m77 3 c0 -5 -7 -10 -15
-10 -8 0 -15 5 -15 10 0 6 7 10 15 10 8 0 15 -4 15 -10z m-124 -26 c-17 -12
-18 -14 -3 -14 9 0 17 -5 17 -10 0 -7 -7 -7 -21 0 -20 11 -20 12 -2 30 10 9
20 15 23 13 3 -3 -4 -11 -14 -19z m268 17 c3 -5 -3 -11 -13 -14 -14 -3 -18 -1
-14 9 6 16 19 18 27 5z m-504 -215 c0 -6 7 -3 14 7 12 15 14 16 20 2 7 -19 -4
-24 -71 -29 -57 -4 -65 2 -33 22 16 10 20 10 20 0 0 -8 5 -6 11 4 10 18 39 14
39 -6z m-1315 -10 c26 -24 26 -25 6 -35 -26 -15 -69 -10 -76 8 -5 13 21 49 37
50 4 1 19 -10 33 -23z m1212 -12 c-3 -3 -12 -4 -19 -1 -8 3 -5 6 6 6 11 1 17
-2 13 -5z m123 -268 c0 -13 -7 -26 -14 -29 -11 -4 -13 -1 -9 10 5 12 3 14 -8
8 -8 -5 -5 1 5 13 24 28 26 27 26 -2z m77 -22 c-3 -3 -12 -4 -19 -1 -8 3 -5 6
6 6 11 1 17 -2 13 -5z m-3225 -37 c-27 -28 -28 -55 -4 -73 16 -12 15 -13 -5
-11 -13 1 -23 8 -24 17 0 10 -2 11 -6 3 -7 -18 -23 -16 -23 2 0 8 -4 15 -10
15 -5 0 -10 8 -11 18 -1 11 -4 9 -9 -8 l-8 -25 -1 27 c-1 27 13 35 84 51 37 9
39 7 17 -16z m194 0 c8 -8 -21 -37 -38 -37 -7 0 -2 -7 10 -16 12 -8 20 -19 17
-24 -3 -4 1 -11 7 -14 7 -3 2 -4 -12 -3 -15 1 -25 8 -25 17 0 20 -15 30 -45
30 -18 0 -21 3 -11 9 11 7 10 10 -5 14 -12 3 -7 5 12 6 17 0 37 7 43 15 12 14
35 16 47 3z m-319 -249 c-3 -7 -5 -2 -5 12 0 14 2 19 5 13 2 -7 2 -19 0 -25z
m79 -4 c34 -15 37 -18 19 -24 -13 -5 -24 -3 -30 5 -7 9 -16 10 -27 4 -21 -12
-37 9 -17 22 8 5 15 9 15 9 1 0 19 -7 40 -16z m2262 -109 c-3 -3 -9 2 -12 12
-6 14 -5 15 5 6 7 -7 10 -15 7 -18z m112 1 c0 -6 5 -4 10 4 8 13 10 12 10 -3
0 -13 7 -17 28 -15 35 2 60 -11 42 -22 -9 -6 -6 -11 10 -20 15 -8 20 -8 16 -1
-10 16 0 13 19 -5 9 -9 36 -17 61 -19 42 -2 77 -15 41 -15 -11 0 -17 -8 -17
-22 0 -19 2 -20 10 -8 9 14 15 7 11 -14 -1 -5 4 -4 11 2 9 7 19 8 28 2 28 -18
31 -10 5 15 -28 29 -32 40 -11 32 10 -4 13 -1 10 8 -4 10 0 12 15 8 13 -3 21
-1 21 8 0 8 6 5 15 -7 13 -16 14 -16 9 -1 -4 12 -1 17 12 18 11 0 27 2 37 4 9
2 17 -2 17 -8 0 -8 3 -9 8 -1 4 5 16 11 27 12 91 8 183 3 191 -10 3 -5 9 -6
14 -3 4 3 10 -1 13 -9 4 -10 22 -14 54 -14 75 0 83 -1 83 -12 0 -6 -30 -10
-70 -10 -38 0 -70 -4 -70 -8 0 -4 63 -7 139 -7 168 2 226 -4 226 -25 0 -10
-22 -18 -80 -27 -137 -21 -365 -34 -381 -22 -6 5 -25 4 -42 -1 -18 -5 -32 -6
-32 -2 0 9 -63 7 -78 -2 -10 -6 -61 -8 -109 -4 -12 1 -19 7 -16 12 4 6 -1 6
-13 1 -10 -5 -55 -11 -99 -12 -44 -2 -84 -4 -90 -4 -39 -2 -102 6 -110 15 -5
6 -11 31 -13 55 -3 30 -11 50 -27 65 -13 11 -25 35 -29 53 -4 27 -2 32 17 35
35 5 77 -3 77 -16z m-269 -20 c5 3 9 -7 9 -21 0 -15 4 -24 10 -20 6 3 10 1 10
-5 0 -6 5 -8 10 -5 6 3 10 2 10 -4 0 -5 -9 -9 -20 -8 -11 1 -20 5 -20 10 0 4
-4 6 -9 3 -5 -4 -7 3 -4 14 4 14 0 20 -11 20 -10 0 -15 -4 -12 -8 2 -4 -5 -8
-17 -9 -12 0 -16 1 -9 4 6 3 10 9 6 14 -3 5 2 9 10 9 9 0 16 6 17 13 0 9 2 9
6 -1 2 -6 9 -10 14 -6z m1129 -80 c-6 -6 -18 -5 -32 2 -22 10 -21 11 9 9 21
-1 29 -5 23 -11z m-1420 -142 c0 -8 -10 -14 -25 -14 -27 0 -28 1 -19 23 7 18
44 10 44 -9z m1620 -8 c-7 -7 -58 -11 -136 -12 -69 -1 -122 2 -117 7 13 13 53
17 161 17 77 0 101 -3 92 -12z"/>
<path d="M3150 1750 c-13 -8 -12 -10 3 -10 9 0 17 5 17 10 0 12 -1 12 -20 0z"/>
<path d="M1930 1069 c0 -5 5 -7 10 -4 6 3 10 8 10 11 0 2 -4 4 -10 4 -5 0 -10
-5 -10 -11z"/>
<path d="M2624 2319 c-9 -15 -2 -18 20 -9 17 6 18 7 3 13 -9 3 -19 2 -23 -4z"/>
<path d="M2939 2251 c7 -5 9 -10 3 -12 -6 -3 -5 -9 3 -16 10 -9 13 -6 13 13 0
16 -6 24 -17 24 -13 0 -13 -2 -2 -9z"/>
<path d="M2814 646 c-3 -9 -10 -13 -15 -10 -5 3 -9 0 -9 -5 0 -17 30 -13 37 4
3 9 3 19 -1 22 -3 3 -8 -2 -12 -11z"/>
<path d="M2741 637 c2 -2 12 -9 22 -16 14 -11 17 -11 17 1 0 7 -10 14 -21 15
-12 1 -20 1 -18 0z"/>
<path d="M3482 3683 c-8 -3 -4 -11 12 -24 23 -18 56 -17 56 3 0 5 -5 6 -11 3
-5 -4 -18 0 -27 8 -9 8 -23 12 -30 10z"/>
<path d="M3449 3659 c-1 -8 -1 -17 0 -21 0 -5 -15 -8 -34 -8 -37 0 -50 -19
-15 -21 64 -4 69 -2 66 26 -3 28 -15 46 -17 24z"/>
<path d="M3528 3618 c6 -6 18 -8 28 -6 14 3 12 5 -9 10 -19 3 -25 2 -19 -4z"/>
<path d="M3280 3577 c-8 -12 -13 -26 -11 -32 1 -5 3 -17 4 -27 1 -9 4 -15 8
-12 4 2 6 12 4 22 -1 9 7 27 18 39 11 13 17 26 14 30 -4 3 -7 0 -7 -8 0 -10
-2 -11 -8 -2 -5 9 -12 6 -22 -10z"/>
<path d="M3224 3565 c-4 -8 -4 -22 0 -30 3 -9 0 -15 -10 -15 -9 0 -12 5 -8 13
4 7 3 9 -2 4 -9 -8 -10 -13 -13 -40 0 -8 -11 -19 -23 -25 -13 -6 -17 -11 -10
-11 7 -1 10 -5 7 -11 -3 -5 0 -10 8 -10 8 0 18 -12 21 -26 4 -15 10 -24 13
-20 3 3 12 -2 19 -12 12 -15 12 -15 7 6 -4 16 -1 22 12 22 27 0 11 25 -18 28
-33 4 -33 9 -5 31 11 10 22 26 23 37 0 11 4 24 8 31 4 6 0 14 -9 17 -8 3 -12
10 -9 16 3 5 4 10 0 10 -3 0 -8 -7 -11 -15z"/>
<path d="M3325 3550 c-8 -13 3 -30 18 -30 8 0 7 3 -2 9 -7 5 -10 14 -7 20 4 6
5 11 2 11 -3 0 -8 -4 -11 -10z"/>
<path d="M3295 3540 c3 -5 8 -10 11 -10 2 0 4 5 4 10 0 6 -5 10 -11 10 -5 0
-7 -4 -4 -10z"/>
<path d="M3286 3461 c-2 -3 2 -11 9 -18 10 -9 17 -9 31 1 16 12 15 13 -10 18
-14 3 -28 3 -30 -1z"/>
<path d="M3260 3446 c0 -2 8 -10 18 -17 15 -13 16 -12 3 4 -13 16 -21 21 -21
13z"/>
<path d="M3123 3373 c-15 -5 -17 -23 -4 -23 5 0 11 7 15 15 3 8 4 15 3 14 -1
0 -8 -3 -14 -6z"/>
<path d="M2678 3203 c7 -3 16 -2 19 1 4 3 -2 6 -13 5 -11 0 -14 -3 -6 -6z"/>
<path d="M2717 3199 c7 -7 15 -10 18 -7 3 3 -2 9 -12 12 -14 6 -15 5 -6 -5z"/>
<path d="M3210 2149 c0 -5 5 -7 10 -4 6 3 10 8 10 11 0 2 -4 4 -10 4 -5 0 -10
-5 -10 -11z"/>
<path d="M3750 1840 c0 -5 5 -10 10 -10 6 0 10 5 10 10 0 6 -4 10 -10 10 -5 0
-10 -4 -10 -10z"/>
<path d="M1330 845 c-10 -12 -8 -13 10 -10 29 6 34 11 16 18 -8 3 -20 0 -26
-8z"/>
<path d="M1240 835 c8 -10 19 -11 35 -5 13 5 26 6 31 2 4 -4 4 -2 1 5 -4 6
-23 11 -42 11 -29 0 -34 -3 -25 -13z"/>
<path d="M1428 833 c7 -3 16 -2 19 1 4 3 -2 6 -13 5 -11 0 -14 -3 -6 -6z"/>
<path d="M1010 822 c0 -7 -6 -12 -14 -12 -8 0 -17 -4 -20 -9 -4 -5 3 -7 14 -4
22 6 35 21 26 30 -3 4 -6 1 -6 -5z"/>
<path d="M1742 709 c-30 -11 -27 -19 7 -19 16 0 31 6 34 13 6 15 -10 17 -41 6z"/>
<path d="M2725 481 c-2 -5 4 -11 15 -14 11 -3 20 -2 20 3 0 12 -28 21 -35 11z"/>
<path d="M2786 472 c-9 -14 -9 -14 26 -16 15 -1 24 2 21 7 -3 4 -11 6 -18 3
-8 -3 -15 0 -18 7 -2 8 -5 8 -11 -1z"/>
<path d="M2896 461 c-3 -4 6 -6 19 -3 14 2 25 6 25 8 0 8 -39 4 -44 -5z"/>
<path d="M2812 360 c0 -14 2 -19 5 -12 2 6 2 18 0 25 -3 6 -5 1 -5 -13z"/>
<path d="M917 343 c-3 -5 5 -8 18 -8 13 0 21 3 18 8 -2 4 -10 7 -18 7 -8 0
-16 -3 -18 -7z"/>
<path d="M1055 300 c-3 -5 1 -10 10 -10 9 0 13 5 10 10 -3 6 -8 10 -10 10 -2
0 -7 -4 -10 -10z"/>
</g>
</svg>
